:version 1.10
:name ASF
:units
  mass 1
  length 1
  angle deg
:documentation
  ASF file generated by Kaydara
:root
  axis xyz
  order  tx ty tz rx ry rz
  position 0 0 0
  orientation 0 0 0
:bonedata
  begin
    id 1
    name RightUpLegDummy
    direction -0.65628 -0.754516 0.00165102
    length 4.76918
    axis 0 0 0 xyz
  end
  begin
    id 2
    name RightUpLeg
    direction -0.145584 -0.923362 0.355256
    length 17.9961
    axis -24.7611 -13.1006 1.78531 xyz
    dof rx ry rz
  end
  begin
    id 3
    name RightLeg
    direction 0.263379 0.172355 -0.949171
    length 13.3386
    axis 89.6202 -21.1929 12.3855 xyz
    dof rx ry rz
  end
  begin
    id 4
    name RightFoot
    direction 0.224283 -0.968777 -0.105675
    length 5.86697
    axis 56.995 -39.6905 17.3365 xyz
    dof rx ry rz
  end
  begin
    id 5
    name RightToes
    direction -0.0806345 -0.9037 0.420506
    length 4.75197
    axis 146.825 -39.7828 17.6019 xyz
    dof rx ry rz
  end
  begin
    id 6
    name SpineDummy
    direction -3.39852e-014 1 9.33296e-014
    length 8.13779
    axis 0 0 0 xyz
  end
  begin
    id 7
    name Spine
    direction -0.156609 0.733703 0.661176
    length 7.14978
    axis 41.2365 5.68757 17.0844 xyz
    dof rx ry rz
  end
  begin
    id 8
    name Spine1
    direction 0 0 0
    length 0
    axis 42.8809 47.8308 -3.36039 xyz
    dof rx ry rz
  end
  begin
    id 9
    name HEadDummy
    direction 0.546431 0.701947 0.456819
    length 3.55512
    axis 42.8809 47.8308 -3.36039 xyz
  end
  begin
    id 10
    name HEad
    direction 0.23444 0.828559 0.508457
    length 7.35827
    axis 51.1864 49.2662 27.4903 xyz
    dof rx ry rz
  end
  begin
    id 11
    name LeftShoulder1Dummy
    direction 0.431183 0.475873 -0.766568
    length 2.49352
    axis 42.8809 47.8308 -3.36039 xyz
  end
  begin
    id 12
    name LeftShoulder1
    direction 0.268187 -0.383402 -0.883786
    length 4.48604
    axis -119.517 0.106469 35.1736 xyz
    dof rx ry rz
  end
  begin
    id 13
    name LeftArm
    direction 0.380567 -0.703221 -0.600541
    length 10.1142
    axis -5.41825 36.2925 7.8293 xyz
    dof rx ry rz
  end
  begin
    id 14
    name LeftForeArm
    direction 0.541071 -0.732356 -0.413396
    length 9.39839
    axis 4.65387 33.7604 7.81644 xyz
    dof rx ry rz
  end
  begin
    id 15
    name LeftHand
    direction 0.847511 -0.389379 -0.360707
    length 3.66142
    axis 7.65593 21.1436 -24.6758 xyz
    dof rx ry rz
  end
  begin
    id 16
    name RightShoulderDummy
    direction -0.692546 0.541855 0.476208
    length 2.49352
    axis 42.8809 47.8308 -3.36039 xyz
  end
  begin
    id 17
    name RightShoulder
    direction -0.870808 -0.316653 0.376065
    length 4.48602
    axis 141.571 51.133 -100.254 xyz
    dof rx ry rz
  end
  begin
    id 18
    name RightArm
    direction 0.366897 -0.87275 0.322015
    length 10.1142
    axis 92.3258 71.2036 138.917 xyz
    dof rx ry rz
  end
  begin
    id 19
    name RightForeArm
    direction 0.702487 -0.694568 0.155197
    length 9.39835
    axis 153.863 41.5092 -176.604 xyz
    dof rx ry rz
  end
  begin
    id 20
    name RightHand
    direction 0.79502 -0.601276 0.0800636
    length 3.66142
    axis 154.247 4.59222 142.9 xyz
    dof rx ry rz
  end
  begin
    id 21
    name LeftUpLegDummy
    direction 0.65628 -0.754516 0.00165102
    length 4.76919
    axis 0 0 0 xyz
  end
  begin
    id 22
    name LeftUpLeg
    direction -0.1277 -0.689368 0.713067
    length 17.9961
    axis -48.3385 -17.8675 0.791927 xyz
    dof rx ry rz
  end
  begin
    id 23
    name LeftLeg
    direction 0.109849 -0.991246 -0.0732378
    length 13.3386
    axis -2.05791 -7.30784 1.72042 xyz
    dof rx ry rz
  end
  begin
    id 24
    name LeftFoot
    direction 0.0448355 -0.272614 0.961078
    length 5.86697
    axis -18.7733 -7.89606 10.2113 xyz
    dof rx ry rz
  end
  begin
    id 25
    name LeftToes
    direction -0.18506 0.293668 0.937823
    length 4.75197
    axis 71.2267 -7.89606 10.2113 xyz
    dof rx ry rz
  end
:hierarchy
  begin
    root RightUpLegDummy SpineDummy LeftUpLegDummy
    RightUpLegDummy RightUpLeg
    RightUpLeg RightLeg
    RightLeg RightFoot
    RightFoot RightToes
    SpineDummy Spine
    Spine Spine1
    Spine1 HEadDummy LeftShoulder1Dummy RightShoulderDummy
    HEadDummy HEad
    LeftShoulder1Dummy LeftShoulder1
    LeftShoulder1 LeftArm
    LeftArm LeftForeArm
    LeftForeArm LeftHand
    RightShoulderDummy RightShoulder
    RightShoulder RightArm
    RightArm RightForeArm
    RightForeArm RightHand
    LeftUpLegDummy LeftUpLeg
    LeftUpLeg LeftLeg
    LeftLeg LeftFoot
    LeftFoot LeftToes
  end

:SAMPLES-PER-SECOND 30
:FULLY-SPECIFIED
:DEGREES
319
root  14.3642 35.8174 -4.14116 -161.157 -34.223 153.51
RightUpLeg  -40.4796 2.51694 -22.8573
RightLeg  -74.8288 -15.9813 5.38786
RightFoot  27.7791 -0.545898 -9.89615
RightToes  -1.27222e-014 -6.36111e-015 6.36111e-015
Spine  -19.6706 -30.2539 -18.7671
Spine1  -8.9299 -18.9147 75.3651
HEad  37.414 8.46313 -23.2139
LeftShoulder1  6.36111e-015 -1.33558e-015 6.49777e-015
LeftArm  30.385 -19.7491 45.7606
LeftForeArm  9.66063 -10.4274 -5.08475
LeftHand  2.62195 7.30029 -1.39916
RightShoulder  -4.77083e-015 -6.36111e-015 -3.18055e-015
RightArm  91.3456 24.8094 -85.5322
RightForeArm  -6.36839 -15.3274 -1.82832
RightHand  0.470737 1.86159 -6.93301
LeftUpLeg  56.2171 7.42511 35.8688
LeftLeg  -27.2849 -16.7677 2.23306
LeftFoot  21.8706 13.6128 -26.0877
LeftToes  1.27222e-014 1.09105e-011 6.96064e-012
320
root  13.3381 34.9447 -2.64752 -158.195 -36.3425 154.17
RightUpLeg  -42.4297 0.206746 -19.1827
RightLeg  -84.1558 -12.6923 -0.0485317
RightFoot  25.8118 -4.14373 -4.52361
RightToes  -1.27222e-014 -6.36111e-015 6.36111e-015
Spine  -19.7502 -29.5146 -17.7274
Spine1  -7.15289 -18.8794 79.4101
HEad  34.2103 8.74899 -26.5577
LeftShoulder1  6.36111e-015 -1.33558e-015 6.49777e-015
LeftArm  30.3982 -21.3577 47.7361
LeftForeArm  10.1167 -10.5115 -5.63034
LeftHand  2.67839 7.56451 -1.66685
RightShoulder  -4.77083e-015 -6.36111e-015 -3.18055e-015
RightArm  89.9705 22.7013 -88.4417
RightForeArm  -5.89508 -14.9778 -2.35082
RightHand  0.351239 2.36715 -6.93444
LeftUpLeg  54.955 11.3978 33.5643
LeftLeg  -23.7683 -18.5784 2.10021
LeftFoot  19.0868 14.7572 -29.8744
LeftToes  1.27222e-014 1.09105e-011 6.96064e-012
321
root  12.5581 33.6835 -1.17217 -154.054 -40.3554 153.943
RightUpLeg  -44.1201 0.659235 -18.975
RightLeg  -91.6739 -11.6165 -3.0676
RightFoot  25.3842 -5.62072 -2.39183
RightToes  -1.27222e-014 -6.36111e-015 6.36111e-015
Spine  -19.0905 -27.9698 -16.3823
Spine1  -6.88212 -18.2353 83.5327
HEad  31.0607 7.31821 -29.86
LeftShoulder1  6.36111e-015 -1.33558e-015 6.49777e-015
LeftArm  29.3164 -22.5921 49.0979
LeftForeArm  11.9033 -12.4175 -6.5206
LeftHand  2.69241 7.70406 -1.90394
RightShoulder  -4.77083e-015 -6.36111e-015 -3.18055e-015
RightArm  89.4201 20.1264 -90.3403
RightForeArm  -5.58018 -15.9152 -2.38502
RightHand  0.302423 2.68699 -7.18472
LeftUpLeg  50.6443 14.0384 31.9034
LeftLeg  -18.8869 -17.1077 0.891969
LeftFoot  8.38645 13.5103 -34.9671
LeftToes  1.27222e-014 1.09105e-011 6.96064e-012
322
root  12.1448 32.3171 0.135076 -149.259 -45.2891 152.793
RightUpLeg  -46.7527 6.89657 -24.712
RightLeg  -93.5419 -11.5382 -3.15365
RightFoot  27.589 -5.8617 -2.94259
RightToes  -1.27222e-014 -6.36111e-015 6.36111e-015
Spine  -15.9208 -25.7177 -15.2479
Spine1  -9.35756 -16.4869 86.0742
HEad  27.8255 5.37198 -31.5641
LeftShoulder1  6.36111e-015 -1.33558e-015 6.49777e-015
LeftArm  29.3663 -22.6878 49.6681
LeftForeArm  13.5453 -14.3845 -7.05001
LeftHand  2.84352 8.12602 -1.93222
RightShoulder  -4.77083e-015 -6.36111e-015 -3.18055e-015
RightArm  89.142 16.0385 -90.0161
RightForeArm  -5.72692 -18.5798 -1.67191
RightHand  0.421733 2.34954 -7.53238
LeftUpLeg  43.4117 13.1335 28.4262
LeftLeg  -12.7351 -15.1892 -0.317967
LeftFoot  -8.20224 8.78834 -38.5191
LeftToes  1.27222e-014 1.09105e-011 6.96064e-012
323
root  12.0311 31.0561 1.02919 -144.983 -49.611 152.077
RightUpLeg  -51.673 13.4667 -32.0018
RightLeg  -89.7777 -11.613 -3.9427
RightFoot  30.7695 -5.05467 -5.10975
RightToes  -1.27222e-014 -6.36111e-015 6.36111e-015
Spine  -11.6054 -22.7707 -13.4278
Spine1  -11.9117 -14.4979 84.1238
HEad  22.8633 4.06029 -32.4276
LeftShoulder1  6.36111e-015 -1.33558e-015 6.49777e-015
LeftArm  33.5641 -20.1337 46.6833
LeftForeArm  12.3703 -12.8526 -6.03637
LeftHand  2.9252 8.51828 -2.30907
RightShoulder  -4.77083e-015 -6.36111e-015 -3.18055e-015
RightArm  86.3504 8.97388 -87.4594
RightForeArm  -4.93498 -20.1326 -0.710571
RightHand  0.376749 2.26748 -6.95153
LeftUpLeg  34.6423 9.51261 25.9794
LeftLeg  -4.25937 -15.5114 -1.44169
LeftFoot  -21.8939 3.89104 -37.9873
LeftToes  1.27222e-014 1.09105e-011 6.96064e-012
324
root  12.0148 30.0985 1.36413 -141.288 -53.0142 153.065
RightUpLeg  -57.2346 15.4774 -35.8984
RightLeg  -85.4838 -11.7792 -3.81107
RightFoot  31.6919 -4.12765 -6.53854
RightToes  -1.27222e-014 -6.36111e-015 6.36111e-015
Spine  -8.54909 -18.4092 -9.38489
Spine1  -12.783 -12.4597 77.9773
HEad  16.2113 2.40503 -34.4639
LeftShoulder1  6.36111e-015 -1.33558e-015 6.49777e-015
LeftArm  37.6973 -13.4936 37.4901
LeftForeArm  8.93648 -7.27496 -3.87125
LeftHand  2.61263 8.05805 -3.20166
RightShoulder  -4.77083e-015 -6.36111e-015 -3.18055e-015
RightArm  79.4033 0.763608 -82.1076
RightForeArm  -1.93111 -18.1529 0.52191
RightHand  0.171202 2.71571 -6.02583
LeftUpLeg  26.2854 6.4344 27.3301
LeftLeg  3.72396 -18.593 -3.15298
LeftFoot  -27.6284 1.91837 -37.7715
LeftToes  1.27222e-014 1.09105e-011 6.96064e-012
325
root  12.0594 29.8897 0.888455 -135.887 -56.5383 154.076
RightUpLeg  -61.5639 14.9589 -37.2247
RightLeg  -83.5406 -12.5881 -0.785271
RightFoot  30.3032 -4.0922 -6.13437
RightToes  -1.27222e-014 -6.36111e-015 6.36111e-015
Spine  -6.47247 -13.3487 -3.61215
Spine1  -13.8647 -10.5646 68.7291
HEad  9.70773 -1.18722 -36.8633
LeftShoulder1  6.36111e-015 -1.33558e-015 6.49777e-015
LeftArm  32.8035 -6.47529 24.0563
LeftForeArm  7.55799 -2.16686 -3.06264
LeftHand  2.02412 6.98145 -4.56219
RightShoulder  -4.77083e-015 -6.36111e-015 -3.18055e-015
RightArm  68.6957 -4.48534 -73.0753
RightForeArm  2.28049 -13.8516 3.05364
RightHand  0.343672 2.32133 -6.76851
LeftUpLeg  19.456 5.2913 30.8637
LeftLeg  3.05545 -24.474 -3.90583
LeftFoot  -24.8909 3.05413 -40.3971
LeftToes  1.27222e-014 1.09105e-011 6.96064e-012
326
root  12.1669 30.4003 -0.594458 -126.615 -61.7273 152.306
RightUpLeg  -64.5593 13.2267 -36.7319
RightLeg  -81.1526 -13.3733 1.14344
RightFoot  28.5468 -4.63454 -4.86059
RightToes  -1.27222e-014 -6.36111e-015 6.36111e-015
Spine  -4.77628 -9.97534 2.3924
Spine1  -15.7464 -10.6593 56.78
HEad  4.04113 -6.30283 -36.9965
LeftShoulder1  6.36111e-015 -1.33558e-015 6.49777e-015
LeftArm  18.9556 -5.36975 11.2307
LeftForeArm  9.85784 -0.813548 -4.49158
LeftHand  1.35785 5.797 -6.44581
RightShoulder  -4.77083e-015 -6.36111e-015 -3.18055e-015
RightArm  55.1095 -4.81109 -62.2688
RightForeArm  5.50034 -10.1749 6.48838
RightHand  1.07512 0.419477 -8.98058
LeftUpLeg  15.211 5.92403 35.2807
LeftLeg  -12.9766 -28.808 1.38182
LeftFoot  -17.7611 6.31631 -44.6151
LeftToes  1.27222e-014 1.09105e-011 6.96064e-012
